<?xml version="1.0" encoding="utf-8"?>
<!-- Generator: Adobe Illustrator 25.4.1, SVG Export Plug-In . SVG Version: 6.00 Build 0)  -->
<svg version="1.1" id="Capa_1" xmlns="http://www.w3.org/2000/svg" xmlns:xlink="http://www.w3.org/1999/xlink" x="0px" y="0px"
	 viewBox="0 0 317 130" style="enable-background:new 0 0 317 130;" xml:space="preserve">
<style type="text/css">
	.st0{fill:#FFFFFF;}
</style>
<g id="_x33_giELn_00000108277453043748908980000008188301373740789649_">
	<g>
		<path class="st0" d="M77.5,54c0.9-2.4,1.8-4.5,2.7-6.8c-4,0-7.7,0-11.4,0c-0.4,0-0.7,0.4-1,0.7c-0.4,0.4-0.6,0.8-0.9,1.2
			c-4.2,5.5-4.2,5.3-11,5.6c-10.4,0.5-20.7,1.3-31.1,2.1c-5.6,0.4-11.2,1.1-16.8,1.6c-0.5,0.1-1.1,0-1.9,0c0.7-2.2,1.4-4.4,2-6.5
			c2.2-7.2,4.6-14.4,6.7-21.7c1.7-5.9,2.2-11.9,1.5-18.1c0-0.3,0-0.6,0-1.2c2.9,0,5.8,0,8.8,0c4.4,0,4.4,0,5.8,4
			c2.6,7.2,2.8,14.6,0.9,22c-0.8,3.3-1.8,6.5-2.7,10c7.2-0.3,14.3-0.7,21.8-1c-0.8,2-1.6,3.7-2.3,5.4c6-6.8,12.2-13.5,13.6-22.9
			c0.9-5.7-1.2-10.7-4.4-15.3c-0.5-0.7-0.9-1.3-1.6-2.2c3.4,0,6.6,0.2,9.8-0.1c4.2-0.4,7.5,0.8,10.8,3.6C82,19.2,87.4,23.8,91.3,30
			c4.9,7.7,4.5,15.4,0.6,23.2c-0.2,0.4-0.8,0.8-1.3,0.8C86.3,54,82.1,54,77.5,54z M73,39.2c3,0,5.6,0,8.4,0
			c-0.3-6.9-3.4-12.2-7.8-17.1C76,27.8,75.6,33.4,73,39.2z"/>
		<path class="st0" d="M8.5,119c1.5-6.4,2.6-12.8,4.5-18.8c3.1-10,6.8-19.8,10.2-29.6c0.4-1.3,1.2-1.8,2.6-2
			c7.5-0.7,15.1-1.6,22.6-2.3c2-0.2,4.1,0.1,6.1,0.6c2.2,0.5,3.2,1.9,2.8,4.2c-0.4,2.1-1.2,4.2-2.1,6.2c-2.2,4.6-4.7,9.1-6.8,13.8
			c-2.6,5.7-4.8,11.6-7.3,17.3c-1.9,4.4-4.6,8.4-9.5,9.8c-2.4,0.7-5.1,0.8-7.6,0.8C19,119.1,14,119,8.5,119z M23,108.1
			c4.4,0.4,6.5-0.7,8.1-4.3c1.3-2.9,2.4-5.9,3.6-8.9c2.3-5.4,4.7-10.7,6.9-16.1c1.2-3,0.6-3.7-2.6-3.7c-2.4,0-4.1,0.6-5,3.2
			c-2.3,6-5.1,11.8-7.4,17.9C25.2,100.1,24.2,104.1,23,108.1z"/>
		<path class="st0" d="M311,23.5c-0.5,9.2-2.5,18.1-7.3,26.1c-4.2,7-10.6,11.1-18.4,13c-4.7,1.2-9.5,2-14.3,1.3
			c-4.7-0.7-6.3-3-4.9-7.5c1.2-3.7,2.9-7.3,4.5-10.9c2.7-6.2,5.4-12.4,8.2-18.5c1.4-3.2,2.9-6.4,4.7-9.4c3.7-6.2,9.6-8.1,16.5-7.4
			c0.5,0,1,0.1,1.5,0.2c5.7,0.6,9.2,4.2,9.6,10C311.1,21.3,311,22.4,311,23.5z M299,23c-0.6-1.1-1-2.5-1.9-3.1c-1.4-0.8-2.9,0-4,1.3
			c-0.7,0.8-1.2,1.7-1.6,2.7c-3,7.5-5.9,14.9-8.8,22.4c-0.8,2.2-1.8,4.3-2.5,6.5c-0.7,2.2,0.2,3,2.5,2.8c2.7-0.3,4.5-2,6-4.2
			c3.4-5.2,5.3-11,7.2-16.9C297.1,30.9,297.9,27.1,299,23z"/>
		<path class="st0" d="M211.5,65c6.1-8,11.8-16.2,12.8-26.7c-0.7,1.5-1.3,3.1-2,4.6c-0.8,1.6-1.6,3.1-2.5,4.6
			c-3.9,6.5-9.3,11.8-14.9,16.8c-0.4,0.4-1.1,0.6-1.7,0.6c-2.5-0.1-5-0.3-8-0.5c0.8-0.7,1.2-1.3,1.7-1.7c5.1-4.5,10-9.3,13.6-15.2
			c4.6-7.6,6.1-15.8,4.7-24.5c-0.6-3.7-1.7-7.4-2.6-11.3c0.5,0,1.1-0.1,1.6-0.1c3.4,0,6.8-0.1,10.2,0.1c0.7,0,1.7,0.6,1.9,1.2
			c4.5,10.6,6.1,21.5,2.2,32.7c-0.2,0.7-0.4,1.4-0.5,2.1c7.3-11.1,8.7-23.2,6.1-36.1c3.8,0,7.4,0,11.5,0c0.1,3.1,0.5,6.3,0.4,9.4
			c-0.2,12.3-4.7,23.1-12.2,32.6c-3.1,3.9-6.6,7.4-9.9,11.1c-0.4,0.4-0.9,0.9-1.3,0.9c-3.6,0.1-7.2,0-10.9,0
			C211.6,65.5,211.6,65.2,211.5,65z"/>
		<path class="st0" d="M130.4,118.6c-4.4,0-8.5,0-12.6,0c-0.5,0-1.1-0.6-1.4-1.1c-4.1-6.4-7.3-13.2-8.1-20.8
			c-0.3-2.3-0.2-4.8,0.1-7.1c0.2-2.3,0.9-4.5,1.4-6.5c-5.1,6.3-7.7,19-1.1,35.6c-2.5,0-4.8,0-7.1,0c-4.4-0.1-4.3-0.1-5.4-4.3
			c-2.2-8.9-2.1-17.6,1.4-26.1c2.5-6,6.4-11.2,11-15.8c2.2-2.2,4.4-4.3,6.7-6.3c0.5-0.4,1.2-0.7,1.8-0.7c3,0.2,6.1,0.5,9.7,0.9
			c-6.8,7.7-13,15.4-12.8,26.1c1.1-4.2,2.9-8.1,5.4-11.7c3.5-5.1,8.2-9.1,12.9-13.1c0.3-0.3,0.8-0.5,1.1-0.5
			c2.5,0.2,5.1,0.5,7.9,0.8c-3,2.7-5.8,5.1-8.4,7.7c-5.5,5.5-9.3,12-9.5,20c-0.2,6.2,1.6,12,4.3,17.5
			C128.4,114.8,129.4,116.5,130.4,118.6z"/>
		<path class="st0" d="M86.4,11.5c7.1,0,14.2-0.6,21.1,0.2c9.8,1.1,17.7,6.2,23.5,14.4c0.1,0.2,0.3,0.4,0.4,0.6c2.1,4,1,6.9-3.6,9
			c0.8,0.3,1.4,0.5,1.9,0.7c4.3,1.6,5.7,5.8,3.1,9.6c-3.3,4.8-8.1,7.3-13.6,8.3c-2.9,0.5-5.8,0.5-8.8,0.5c-4.9-0.1-9.8-0.4-14.7-0.6
			c-0.4,0-0.9-0.1-1.5-0.2c1.3-1.8,2.5-3.3,3.6-4.9c2.6-3.7,4.6-7.7,4.7-12.4c0.2-6.2-2.7-11.3-6.6-15.7c-2.5-2.9-5.4-5.4-8.2-8
			C87.3,12.3,86.8,11.9,86.4,11.5z M112.1,47.6c3.2,0.9,5.9,0.3,8.3-2c1.7-1.6,2.2-3.8,1.3-5.2c-0.7-1.2-4.2-2.4-5.8-1.8
			c-0.3,0.1-0.5,0.5-0.7,0.8C114.2,42.1,113.2,44.8,112.1,47.6z M109.4,21.7c0.4,0.6,0.7,1,0.9,1.4c1.2,2,2.7,3.8,3.5,6
			c0.7,1.9,1.7,2.4,3.5,2.4c2.9-0.1,4-1.7,2.5-4.2C117.6,23.4,114.4,21.1,109.4,21.7z"/>
		<path class="st0" d="M204.7,98c2.9,9.1,9.6,14.8,16.5,20.9c-3.4,0-6.4-0.1-9.4,0c-2.2,0.1-3.8-0.7-5.3-2.1
			c-4.1-3.9-8.2-7.8-11.2-12.6c-4.8-7.7-4.7-14.3,0.5-21.7c1.7-2.3,3.7-4.4,5.6-6.6c0.4-0.4,1.1-0.8,1.6-0.8
			c3.3,0.1,6.6,0.4,10.3,0.6c-3.4,4.2-6.9,7.9-8.5,13.4c2.5,0.1,4.9,0.3,7.3,0.3c0.3,0,0.8-0.6,0.9-1c1.5-4.5,4.3-8.2,7.3-11.7
			c0.3-0.4,0.8-0.8,1.2-0.8c3.9-0.1,7.8,0,12.3,0c-1.5,2.3-2.8,4.1-3.9,6c-3.7,6-5.5,12.4-2.9,19.3c1.7,4.5,4.6,8.3,8,11.7
			c2,2,4,3.9,6.3,6c-4.1,0-7.9,0-11.7,0c-0.3,0-0.7-0.2-1-0.4c-5.2-4.3-10.2-8.8-13.5-14.7c-0.7-1.2-1.3-2.4-1.7-3.7
			c-0.4-1.4-1.2-1.7-2.5-1.7C208.9,98.3,207,98.1,204.7,98z"/>
		<path class="st0" d="M275.4,74.7c-1.3,2.9-2.5,5.7-3.8,8.3c-0.2,0.5-1.2,0.8-1.9,0.8c-5.4,0.2-10.9,0.3-16.3,0.4
			c-3.1,0.1-3.1,0-4.2,2.9c-0.4,1.2-0.7,2.5-1.2,4c6.7,0,13,0,19.5,0c-0.2,3-0.5,5.7-0.7,8.5c-6.2,0-12.4,0-18.7,0
			c0.2,3.2,1.6,5.8,3,8.3c0.2,0.4,1.1,0.5,1.6,0.6c5.4,0.1,10.9,0.2,16.3,0.3c1.3,0,2,0.4,2.6,1.6c1.1,2.3,2.5,4.5,3.8,6.7
			c0.3,0.5,0.7,1,1.2,1.9c-1.3,0-2.3,0-3.3,0c-8.1,0-16.2,0-24.2-0.1c-0.9,0-2-0.4-2.6-1c-2.9-2.9-5.9-5.6-8.4-8.8
			c-6.7-8.5-7.2-17.1-1.8-26.6c0.9-1.6,2-3.2,2.9-4.8c0.7-1.3,1.6-1.8,3.1-1.8c10.3-0.4,20.5-0.8,30.8-1.2
			C273.8,74.7,274.4,74.7,275.4,74.7z"/>
		<path class="st0" d="M188.8,42.3c2.9,1.7,3.6,3.7,1.5,6.7c-2.3,3.2-5.1,6-7.6,9c-1.1,1.3-2.2,2.7-3.3,3.9
			c-0.3,0.3-0.8,0.6-1.2,0.5c-2.8-0.3-5.6-0.7-8.8-1.2c1.2-1.3,2.1-2.4,3.1-3.4c2.2-2.3,4.5-4.5,6.7-6.8c0.7-0.8,1.2-1.8,1.6-2.7
			c0.5-0.9,0.9-1.9-0.4-2.3c-1.3-0.4-2.9-1.4-3.9,0.2c-3.1,5.4-7.7,9.4-12.3,13.3c-0.5,0.4-1.2,0.8-1.8,0.7c-2.6-0.3-5.2-0.7-7.9-1
			c2.7-2.6,5.4-5,7.8-7.5c4.2-4.3,6.8-9.4,6.9-15.6c0-5.4-1.9-10.2-4.7-14.7c-2.1-3.3-4.4-6.5-6.8-9.8c0.3,0,0.7-0.1,1.1-0.1
			c5.6,0,11.2,0,16.7,0c9.7,0.1,18.4,7.2,20.1,16.8c0.7,4,0.7,8.1-2.6,11.2C191.9,40.7,190.2,41.4,188.8,42.3z M179.8,37.4
			c2,0.2,4,0.5,5.2-2.1c1.3-2.9,0.5-5.5-0.9-8c-1.5-2.6-4-3.1-6.6-2.9C178.3,28.6,179,32.9,179.8,37.4z"/>
		<path class="st0" d="M69,81.2c4.5,0,8.5,0,12.7,0c-1,1.8-2,3.6-3,5.5c-0.2,0.4-0.6,0.9-0.7,1.3c-0.5,3.2-2.6,3.9-5.5,3.7
			c-2.6-0.1-5.1,0.2-7.7,0.4c-0.5,0-1.4,0.4-1.5,0.8c-1.2,3.6-2.3,7.3-3.5,11.1c5.3,0,10.1,0,14.8,0c0.2,4.8,0.4,9.6,0.6,14.6
			c-9.3,0-18.7,0-28.7,0c0.7-4.8,1.2-9.4,2.1-14c2.4-11.9,8.1-22.3,15.2-31.9c1.7-2.3,3.5-4.6,5.2-6.9c0.4-0.4,0.9-1,1.4-1
			c8.6-0.3,17.2-0.4,25.9-0.6c0,0.2,0.1,0.4,0.1,0.5c-2.4,2.7-4.8,5.3-7.3,7.9c-0.4,0.4-1.3,0.5-1.9,0.5c-3.7,0.1-7.4,0.1-11.1,0.3
			c-0.8,0-1.8,0.6-2.3,1.2C72.2,76.6,70.7,78.9,69,81.2z"/>
		<path class="st0" d="M152.8,120c-8.5-0.3-15-4.3-20.1-10.8c-7.5-9.5-7.3-20.2,0.7-29.3c5.2-6,11.9-9.8,19.9-10.5
			c2.4-0.2,4.9,0.1,7.2,0.6c2.5,0.5,3.3,2.2,2.3,4.5c-0.9,2.1-2,4.2-3.2,6.2c-4.6,7.5-5.1,15.4-2.4,23.6c0.9,2.7,1.9,5.3,2.5,8.1
			c1.2,5.2-0.5,7.3-5.8,7.6C153.5,120,153.1,120,152.8,120z M150.1,75.2c-1,0.5-2.1,0.8-3,1.4c-7.6,5.1-11.3,16-8.1,24.6
			c0.8,2.2,2.4,4.2,4,6c0.5,0.6,2,0.6,2.9,0.3c0.4-0.1,0.6-1.6,0.5-2.4c-0.2-1.8-0.7-3.6-1-5.3c-0.9-5-0.8-10,1.6-14.6
			c1.3-2.5,3-4.9,4.5-7.4c0.3-0.5,0.5-1.2,0.3-1.7C151.5,75.7,150.7,75.5,150.1,75.2z"/>
		<path class="st0" d="M161.5,25.1c-4.9-0.2-9.4-0.4-14-0.6c1,2.8,1.9,5.5,3,8.2c0.1,0.3,0.9,0.6,1.4,0.6c3.3,0.3,6.6,0.6,9.9,0.8
			c1.6,0.1,2.1,0.8,1.9,2.3c-0.3,1.8-0.5,3.6-0.8,5.4c-0.2,1.3-0.8,1.7-2.2,1.5c-3.5-0.5-7.1-0.7-10.3-1c-1.5,2.6-2.9,5-4.4,7.5
			c4.1,0.5,8,1.1,12,1.6c0.1,0.2,0.2,0.3,0.3,0.5c-2.5,2.2-5,4.4-7.5,6.6c-0.2,0.2-0.7,0.2-1.1,0.1c-7-0.8-13.9-1.6-21.3-2.9
			c0.8-0.7,1.7-1.3,2.5-2.1c3.3-3.3,6.4-6.8,8-11.2c2.1-6,0.9-11.6-2.6-16.6c-2.9-4.1-6.4-7.8-9.7-11.7c-0.7-0.8-1.5-1.5-2.6-2.6
			c2.9,0,5.5,0,8.1,0c6,0,12,0,18.1,0.1c0.8,0,2,0.3,2.5,0.9c2.8,3.7,5.5,7.6,8.2,11.4C161.2,24.1,161.2,24.5,161.5,25.1z"/>
		<path class="st0" d="M177.5,86.7c1-1.9,1.9-3.5,2.7-5.1c0.3-0.6,0.6-1.9,0.3-2c-0.7-0.4-1.6-0.7-2.4-0.5c-2.9,0.6-4.6,2.7-6.1,5
			c-5.7,8.5-1.9,18.6,4,23.6c0.1,0.1,0.3,0.3,0.5,0.3c1.3,0.3,2.7,0.5,4,0.8c-0.2-1.2-0.3-2.4-0.7-3.5c-1-2.7-2.2-5.4-3.5-8.5
			c4,0.3,7.5,0.5,10.9,0.8c0.4,0,0.9,0.5,1.1,0.9c2.2,4.4,4.3,8.9,6.4,13.3c0.5,1.1,1,2.3,1.2,3.5c0.6,2.6-0.5,4.2-3.1,4.5
			c-2.2,0.2-4.4,0.3-6.5,0c-11.8-2.1-20.7-8.3-26.3-18.9c-3.7-7-2.2-14.2,3.8-20c6.7-6.4,14.7-9.2,23.9-7.6c0.7,0.1,1.3,0.3,2,0.5
			c2.6,1,3.6,2.8,2.5,5.4c-1.1,2.7-2.4,5.2-3.7,7.8c-0.2,0.3-0.9,0.6-1.4,0.6C184.1,87.3,181,87,177.5,86.7z"/>
		<path class="st0" d="M248.5,11.4c10.2,0,20.3,0,30.8,0c-0.5,3.6-1.2,7.2-1.6,10.9c-0.3,2.2-1.2,3.2-3.5,3
			c-1.6-0.1-3.3,0.1-4.9,0.4c-0.6,0.1-1.4,0.7-1.5,1.2c-3.2,13.5-10.5,24.8-18.7,35.6c-1.7,2.2-3.4,3.2-6.1,3
			c-2.6-0.1-5.1,0-7.7,0.1c-0.1,0-0.2-0.1-0.2-0.1c4.4-6,9-11.9,13.2-18.1c4.2-6.3,6.8-13.3,8.2-20.9c-2.9,0-5.5,0-8.1,0
			C248.5,21.6,248.5,16.7,248.5,11.4z"/>
		<path class="st0" d="M181.8,62.9c2.1-1.9,3.9-3.4,5.6-5c4.7-4.2,8.7-9,11.1-14.9c2.1-5,2.3-10.2,1.7-15.5
			c-0.7-5.5-2.9-10.6-5.4-15.8c0.7-0.1,1.3-0.1,1.9-0.1c2.9,0,5.9,0,8.8,0.1c0.6,0,1.6,0.6,1.8,1.1c3.4,7.9,4.8,16.2,3,24.7
			c-1.6,7.4-5.7,13.4-11,18.7c-2.4,2.4-5.1,4.7-7.6,7c-0.4,0.4-1.1,0.7-1.7,0.6C187.5,63.6,184.9,63.2,181.8,62.9z"/>
	</g>
</g>
</svg>
